# xmcd
#
# Track frame offsets: 
#        150
#        10963
#        29185
#        53813
#        68818
#        79545
#        97760
#        110205
#        129753
#        141875
#        169510
#
# Disc length: 2556 seconds
#
# Revision: 1
# Processed by: cddbd v1.5.1PL2 Copyright (c) Steve Scherf et al.
# Submitted via: ExactAudioCopy v0.95b3
#
DISCID=8b09fa0b
DTITLE=Notodden Bluesband - Notodden Bluesband
DYEAR=1900
DGENRE=Blues
TTITLE0=Laud blues med sugeløl
TTITLE1=Kristiansand
TTITLE2=Så langt som hit
TTITLE3=Heimlengt
TTITLE4=På heimveg
TTITLE5=Menneske i mjuk sofa
TTITLE6=Arbeid
TTITLE7=Blå ord
TTITLE8=Crazy Corner
TTITLE9=Siste Nått
TTITLE10=Eller kjent deg så nær før
EXTD=
EXTT0=
EXTT1=
EXTT2=
EXTT3=
EXTT4=
EXTT5=
EXTT6=
EXTT7=
EXTT8=
EXTT9=
EXTT10=
PLAYORDER=
